# xmcd CD database file
#
# Track frame offsets:
#	225
#	11605
#	16245
#	18625
#	31289
#	38616
#	48236
#	58506
#	76413
#	88610
#	109360
#	116833
#	127915
#	137830
#	147915
#	157739
#	169017
#	185525
#	197377
#	208082
#	220583
#	234983
#	249744
#	262945
#	277572
#	291964
#	303102
#	308781
#	320920
#	330274
#
# Disc length: 4670 seconds
#
# Revision: 0
# Processed by: cddbd v1.4PL0 Copyright (c) Steve Scherf et al.
# Submitted via: CDex 1.50Beta7
#
DISCID=93123b1e
DTITLE=Leadbelly and Josh White - Black Folk Singers ~ Remaining Titles 1937 - 1946
DYEAR=1999
DGENRE=Blues
TTITLE0=untitled - Leadbelly (1937)
TTITLE1=Introduction - WNYC Radio - Leadbelly (1940)
TTITLE2=Ain't Going Down - Leadbelly (1940)
TTITLE3=Don't You Love Your Daddy No More¿  - Leadbelly (1940)
TTITLE4=You Can't Lose me, Charlie - Leadbelly (1940)
TTITLE5=When You Get to Sleep, Please Don't Sleep Too Long - Leadbelly (1941)
TTITLE6=Uncle Sam Says (Bottle Up and Go) - Leadbelly (1942)
TTITLE7=Dear Mr. President~President Roosevelt - Leadbelly (1942)
TTITLE8=If You Want to Do Your Part  - Leadbelly (1942)
TTITLE9=Hitler Song - Leadbelly (1943)
TTITLE10=Rock Island Line - Leadbelly (1944)
TTITLE11=Jim Crow Blues - Leadbelly (1944)
TTITLE12=Careless Love - Leadbelly (1946)
TTITLE13=Hold On - Josh White (1944)
TTITLE14=Motherless Children (alt. take 1) - Josh White (1944)
TTITLE15=Motherless Children (alt. take 2) - Josh White (1944)
TTITLE16=Number 12 Train - Josh White (1944)
TTITLE17=When I Lay Down - Josh White (1944)
TTITLE18=Don't Lie, Buddy - Josh White (1944)
TTITLE19=No More Blues (No More Bread Lines) - Josh White (1944)
TTITLE20=One Meat Ball - Josh White (1944)
TTITLE21=In My Time of Dying - Josh White (1945)
TTITLE22=Evil Hearted Man - Josh White (1945)
TTITLE23=One Meat Ball - Josh White (1945)
TTITLE24=Take a Gal Like You - Josh White (1945)
TTITLE25=Jelly Jelly - Josh White (1945)
TTITLE26=Whatcha Gonna Do (Sometime) - Josh White (1945)
TTITLE27=Trouble - Josh White (1945)
TTITLE28=Beloved Comrade - Josh White (1945)
TTITLE29=Free and Equal Blues - Josh White (1946)
EXTD=YEAR: 1999
EXTT0=
EXTT1=
EXTT2=
EXTT3=
EXTT4=
EXTT5=
EXTT6=
EXTT7=
EXTT8=
EXTT9=
EXTT10=
EXTT11=
EXTT12=
EXTT13=
EXTT14=
EXTT15=
EXTT16=
EXTT17=
EXTT18=
EXTT19=
EXTT20=
EXTT21=
EXTT22=
EXTT23=
EXTT24=
EXTT25=
EXTT26=
EXTT27=
EXTT28=
EXTT29=
PLAYORDER=
